<mxfile host="app.diagrams.net" agent="Mozilla/5.0 (Windows NT 10.0; Win64; x64) AppleWebKit/537.36 (KHTML, like Gecko) Chrome/137.0.0.0 Safari/537.36" version="27.1.4">
  <diagram name="Página-1" id="ZD0ovC54DhZ8u7WFzlvA">
    <mxGraphModel dx="872" dy="445" grid="1" gridSize="10" guides="1" tooltips="1" connect="1" arrows="1" fold="1" page="1" pageScale="1" pageWidth="827" pageHeight="1169" math="0" shadow="0">
      <root>
        <mxCell id="0" />
        <mxCell id="1" parent="0" />
        <mxCell id="4ifH-1xzGtX6nxtgQtaE-1" value="Diagrama de Atividade - Cadastro" style="shape=umlFrame;whiteSpace=wrap;html=1;pointerEvents=0;width=200;height=30;" parent="1" vertex="1">
          <mxGeometry x="150" y="70" width="580" height="370" as="geometry" />
        </mxCell>
        <mxCell id="4ifH-1xzGtX6nxtgQtaE-7" value="" style="edgeStyle=orthogonalEdgeStyle;rounded=0;orthogonalLoop=1;jettySize=auto;html=1;" parent="1" source="4ifH-1xzGtX6nxtgQtaE-2" target="4ifH-1xzGtX6nxtgQtaE-4" edge="1">
          <mxGeometry relative="1" as="geometry" />
        </mxCell>
        <mxCell id="4ifH-1xzGtX6nxtgQtaE-2" value="" style="ellipse;html=1;shape=startState;fillColor=#000000;strokeColor=#ff0000;" parent="1" vertex="1">
          <mxGeometry x="170" y="155" width="30" height="30" as="geometry" />
        </mxCell>
        <mxCell id="GnmopAlQHExH1XAaSwVP-8" value="" style="edgeStyle=orthogonalEdgeStyle;rounded=0;orthogonalLoop=1;jettySize=auto;html=1;" edge="1" parent="1" source="4ifH-1xzGtX6nxtgQtaE-4" target="GnmopAlQHExH1XAaSwVP-4">
          <mxGeometry relative="1" as="geometry" />
        </mxCell>
        <mxCell id="4ifH-1xzGtX6nxtgQtaE-4" value="Clicar em Cadastrar" style="rounded=1;whiteSpace=wrap;html=1;arcSize=40;fontColor=#000000;fillColor=#ffffc0;strokeColor=#ff0000;" parent="1" vertex="1">
          <mxGeometry x="240" y="150" width="120" height="40" as="geometry" />
        </mxCell>
        <mxCell id="4ifH-1xzGtX6nxtgQtaE-12" value="" style="edgeStyle=orthogonalEdgeStyle;rounded=0;orthogonalLoop=1;jettySize=auto;html=1;" parent="1" source="4ifH-1xzGtX6nxtgQtaE-8" target="4ifH-1xzGtX6nxtgQtaE-11" edge="1">
          <mxGeometry relative="1" as="geometry" />
        </mxCell>
        <mxCell id="4ifH-1xzGtX6nxtgQtaE-8" value="Inserir dados do cadastro" style="rounded=1;whiteSpace=wrap;html=1;arcSize=40;fontColor=#000000;fillColor=#ffffc0;strokeColor=#ff0000;" parent="1" vertex="1">
          <mxGeometry x="567" y="150" width="120" height="40" as="geometry" />
        </mxCell>
        <mxCell id="4ifH-1xzGtX6nxtgQtaE-10" value="" style="ellipse;html=1;shape=endState;fillColor=#000000;strokeColor=#ff0000;" parent="1" vertex="1">
          <mxGeometry x="170" y="275" width="30" height="30" as="geometry" />
        </mxCell>
        <mxCell id="GnmopAlQHExH1XAaSwVP-5" value="" style="edgeStyle=orthogonalEdgeStyle;rounded=0;orthogonalLoop=1;jettySize=auto;html=1;" edge="1" parent="1" source="4ifH-1xzGtX6nxtgQtaE-11" target="GnmopAlQHExH1XAaSwVP-1">
          <mxGeometry relative="1" as="geometry" />
        </mxCell>
        <mxCell id="4ifH-1xzGtX6nxtgQtaE-11" value="Clicar em&lt;div&gt;Criar Conta&lt;/div&gt;" style="rounded=1;whiteSpace=wrap;html=1;arcSize=40;fontColor=#000000;fillColor=#ffffc0;strokeColor=#ff0000;" parent="1" vertex="1">
          <mxGeometry x="567" y="270" width="120" height="40" as="geometry" />
        </mxCell>
        <mxCell id="GnmopAlQHExH1XAaSwVP-6" value="" style="edgeStyle=orthogonalEdgeStyle;rounded=0;orthogonalLoop=1;jettySize=auto;html=1;" edge="1" parent="1" source="GnmopAlQHExH1XAaSwVP-1" target="GnmopAlQHExH1XAaSwVP-4">
          <mxGeometry relative="1" as="geometry" />
        </mxCell>
        <mxCell id="GnmopAlQHExH1XAaSwVP-10" value="Sim" style="edgeLabel;html=1;align=center;verticalAlign=middle;resizable=0;points=[];" vertex="1" connectable="0" parent="GnmopAlQHExH1XAaSwVP-6">
          <mxGeometry x="-0.0857" y="-1" relative="1" as="geometry">
            <mxPoint x="19" as="offset" />
          </mxGeometry>
        </mxCell>
        <mxCell id="GnmopAlQHExH1XAaSwVP-11" style="edgeStyle=orthogonalEdgeStyle;rounded=0;orthogonalLoop=1;jettySize=auto;html=1;entryX=1;entryY=0.5;entryDx=0;entryDy=0;" edge="1" parent="1" source="GnmopAlQHExH1XAaSwVP-1" target="GnmopAlQHExH1XAaSwVP-14">
          <mxGeometry relative="1" as="geometry">
            <Array as="points">
              <mxPoint x="476" y="380" />
            </Array>
          </mxGeometry>
        </mxCell>
        <mxCell id="GnmopAlQHExH1XAaSwVP-12" value="Não" style="edgeLabel;html=1;align=center;verticalAlign=middle;resizable=0;points=[];" vertex="1" connectable="0" parent="GnmopAlQHExH1XAaSwVP-11">
          <mxGeometry x="-0.264" relative="1" as="geometry">
            <mxPoint x="20" y="-30" as="offset" />
          </mxGeometry>
        </mxCell>
        <mxCell id="GnmopAlQHExH1XAaSwVP-1" value="Usuario ja cadastrado" style="rhombus;whiteSpace=wrap;html=1;fontColor=#000000;fillColor=#ffffc0;strokeColor=#ff0000;" vertex="1" parent="1">
          <mxGeometry x="421" y="260" width="110" height="60" as="geometry" />
        </mxCell>
        <mxCell id="GnmopAlQHExH1XAaSwVP-9" value="" style="edgeStyle=orthogonalEdgeStyle;rounded=0;orthogonalLoop=1;jettySize=auto;html=1;" edge="1" parent="1" source="GnmopAlQHExH1XAaSwVP-4" target="4ifH-1xzGtX6nxtgQtaE-8">
          <mxGeometry relative="1" as="geometry" />
        </mxCell>
        <mxCell id="GnmopAlQHExH1XAaSwVP-4" value="Carrega formulário para cadastro" style="rounded=1;whiteSpace=wrap;html=1;arcSize=40;fontColor=#000000;fillColor=#ffffc0;strokeColor=#ff0000;" vertex="1" parent="1">
          <mxGeometry x="416" y="150" width="120" height="40" as="geometry" />
        </mxCell>
        <mxCell id="GnmopAlQHExH1XAaSwVP-16" value="" style="edgeStyle=orthogonalEdgeStyle;rounded=0;orthogonalLoop=1;jettySize=auto;html=1;" edge="1" parent="1" source="GnmopAlQHExH1XAaSwVP-7" target="4ifH-1xzGtX6nxtgQtaE-10">
          <mxGeometry relative="1" as="geometry" />
        </mxCell>
        <mxCell id="GnmopAlQHExH1XAaSwVP-7" value="Abre a timeline com a sessão do novo cadastro" style="rounded=1;whiteSpace=wrap;html=1;arcSize=40;fontColor=#000000;fillColor=#ffffc0;strokeColor=#ff0000;" vertex="1" parent="1">
          <mxGeometry x="240" y="270" width="150" height="40" as="geometry" />
        </mxCell>
        <mxCell id="GnmopAlQHExH1XAaSwVP-15" value="" style="edgeStyle=orthogonalEdgeStyle;rounded=0;orthogonalLoop=1;jettySize=auto;html=1;" edge="1" parent="1" source="GnmopAlQHExH1XAaSwVP-14" target="GnmopAlQHExH1XAaSwVP-7">
          <mxGeometry relative="1" as="geometry" />
        </mxCell>
        <mxCell id="GnmopAlQHExH1XAaSwVP-14" value="Salva os dados no banco" style="rounded=1;whiteSpace=wrap;html=1;arcSize=40;fontColor=#000000;fillColor=#ffffc0;strokeColor=#ff0000;" vertex="1" parent="1">
          <mxGeometry x="260" y="360" width="110" height="40" as="geometry" />
        </mxCell>
      </root>
    </mxGraphModel>
  </diagram>
</mxfile>
